<?xml version="1.0" standalone="no"?>
<!DOCTYPE svg PUBLIC "-//W3C//DTD SVG 20010904//EN"
 "http://www.w3.org/TR/2001/REC-SVG-20010904/DTD/svg10.dtd">
<svg version="1.0" xmlns="http://www.w3.org/2000/svg"
 width="1518.000000pt" height="1518.000000pt" viewBox="0 0 1518.000000 1518.000000"
 preserveAspectRatio="xMidYMid meet">
<metadata>
Created by potrace 1.14, written by Peter Selinger 2001-2017
</metadata>
<g transform="translate(0.000000,1518.000000) scale(0.100000,-0.100000)"
fill="#000000" stroke="none">
<path d="M7238 15135 c-1 -1 -57 -6 -123 -9 -66 -4 -133 -8 -150 -10 -16 -3
-64 -7 -105 -10 -41 -3 -84 -8 -95 -10 -12 -2 -52 -7 -90 -10 -39 -4 -77 -9
-85 -11 -8 -2 -37 -6 -65 -10 -74 -9 -117 -15 -145 -21 -14 -2 -38 -7 -55 -10
-168 -29 -321 -59 -448 -89 -83 -20 -159 -38 -168 -40 -52 -11 -367 -105 -489
-145 -414 -137 -899 -347 -1215 -525 -22 -12 -71 -40 -110 -60 -273 -149 -694
-430 -975 -652 -27 -21 -275 -227 -286 -238 -6 -5 -45 -39 -85 -75 -110 -97
-451 -436 -556 -553 -556 -619 -1002 -1309 -1323 -2047 -89 -204 -82 -189
-119 -285 -17 -44 -41 -109 -55 -145 -60 -159 -205 -627 -231 -748 -2 -9 -16
-69 -30 -132 -40 -172 -89 -423 -100 -510 -4 -30 -9 -64 -11 -75 -8 -40 -31
-212 -40 -295 -4 -42 -14 -148 -19 -210 -21 -226 -28 -846 -13 -1080 11 -167
26 -343 32 -375 2 -11 7 -51 11 -88 3 -37 8 -76 10 -86 2 -10 6 -42 10 -72 4
-30 13 -92 21 -139 8 -47 17 -96 19 -110 4 -27 39 -204 55 -285 13 -65 57
-246 75 -310 8 -27 28 -100 45 -161 91 -330 232 -712 401 -1084 47 -103 201
-407 257 -504 25 -45 51 -90 57 -101 18 -33 79 -135 97 -163 10 -15 25 -40 34
-57 46 -82 403 -596 434 -625 3 -3 41 -50 84 -105 79 -99 222 -269 301 -355
79 -87 472 -477 554 -550 109 -97 114 -102 163 -142 23 -18 46 -37 52 -43 88
-80 380 -301 566 -427 391 -266 682 -431 1144 -647 59 -28 112 -51 116 -51 4
0 20 -6 36 -14 111 -53 352 -145 579 -221 261 -88 735 -213 910 -241 22 -3 42
-7 45 -9 3 -2 24 -6 46 -9 22 -4 51 -9 64 -11 33 -7 193 -32 250 -40 25 -3 56
-8 70 -10 30 -4 109 -14 170 -20 25 -3 65 -7 90 -10 25 -3 77 -7 115 -10 39
-2 108 -8 155 -12 178 -16 899 -8 1105 11 17 2 66 7 110 11 122 11 200 20 265
30 14 2 45 7 70 10 56 8 90 13 160 25 30 5 73 12 95 16 42 6 381 77 475 100
163 38 548 151 648 189 20 7 87 32 147 54 61 21 124 45 140 52 17 7 35 13 41
14 5 2 30 12 54 24 24 11 47 21 51 21 4 0 72 29 151 64 311 138 607 292 880
457 387 235 816 556 1163 869 65 59 449 442 501 500 144 161 205 233 318 374
70 87 135 170 144 185 9 14 22 31 28 36 6 6 42 55 81 110 291 414 525 818 715
1235 17 36 43 92 58 125 40 87 180 443 180 459 0 7 3 16 7 20 4 3 8 12 9 19 1
7 14 44 28 82 49 130 142 446 185 625 39 163 50 212 66 290 2 14 9 48 15 75
17 83 19 95 41 230 11 72 22 141 25 155 2 14 6 45 9 70 6 64 14 131 20 160 4
26 15 132 20 210 2 25 7 90 11 145 16 206 10 895 -10 1115 -3 25 -7 74 -10
110 -4 36 -8 81 -11 100 -2 19 -9 78 -15 130 -6 52 -20 149 -31 215 -11 66
-22 134 -25 150 -2 17 -7 44 -11 60 -3 17 -7 39 -9 50 -2 11 -5 31 -9 45 -3
14 -8 39 -11 55 -3 17 -12 59 -20 95 -9 36 -18 76 -20 90 -11 57 -48 195 -101
380 -185 646 -468 1283 -821 1851 -48 78 -91 148 -97 157 -54 90 -274 399
-372 522 -53 67 -203 251 -224 275 -159 182 -232 259 -408 435 -113 113 -240
236 -281 272 -41 37 -91 81 -110 98 -62 55 -362 295 -450 359 -47 34 -92 68
-100 74 -8 7 -96 67 -195 133 -198 133 -319 207 -500 308 -66 37 -136 76 -155
87 -96 54 -440 217 -578 274 -86 36 -177 74 -202 85 -25 10 -79 31 -120 45
-41 15 -85 30 -96 35 -137 55 -671 214 -739 221 -2 0 -19 5 -37 10 -62 19
-411 91 -503 104 -22 4 -78 12 -125 20 -47 7 -112 16 -145 20 -32 4 -68 9 -79
11 -11 2 -49 6 -85 9 -36 4 -79 8 -96 10 -16 2 -68 7 -115 10 -47 4 -105 9
-130 12 -50 5 -846 13 -852 8z"/>
</g>
</svg>
